<svg xmlns="http://www.w3.org/2000/svg" xmlns:xlink="http://www.w3.org/1999/xlink" width="70" height="53" viewBox="0 0 70 53">
  <defs>
    <clipPath id="clip-path">
      <rect id="Ret칙ngulo_4427" data-name="Ret칙ngulo 4427" width="70" height="53" rx="4" transform="translate(16 18)" fill="#782ffa"/>
    </clipPath>
  </defs>
  <g id="Grupo_de_m치scara_70" data-name="Grupo de m치scara 70" transform="translate(-16 -18)" clip-path="url(#clip-path)">
    <g id="Camada_1" data-name="Camada 1" transform="translate(17.428 27.691)">
      <path id="path2" d="M27.141,33.242c-4.408,0-8.109-1.932-9.983-5.134-.637.233-1.318.467-2.037.667a49.9,49.9,0,0,1-12.729,1.51L1.038,30.3.831,1.4l1.139-.189A48.825,48.825,0,0,1,8.16.878c12.076,0,14.61,4.186,14.61,7.7a6.683,6.683,0,0,1-1.633,4.375c.184.14.362.287.532.436a14.316,14.316,0,0,1,6.849-1.633,12.809,12.809,0,0,1,3.612.495V.377H42.813V8.192a15.434,15.434,0,0,1,2.8-.266A11.807,11.807,0,0,1,47.7,8.1a4.4,4.4,0,0,1,4.016-6.279,4.289,4.289,0,0,1,4.3,4.366,4.531,4.531,0,0,1-.247,1.507A18.043,18.043,0,0,1,60.438,7.1a35.569,35.569,0,0,1,4.242.205l1.132.184v8.387l-1.717-.131a7.568,7.568,0,0,1,2.219,4.959c0,2.686-1.367,7.194-10.526,7.194a36.306,36.306,0,0,1-4.308-.208L50.352,27.5V22.811a16.211,16.211,0,0,1-6.961,4.515,16.444,16.444,0,0,1-5.253.882,5.715,5.715,0,0,1-.726-.03A12.4,12.4,0,0,1,27.141,33.242Z" fill="#fff"/>
      <path id="path4" d="M59.493,14.061l4.886.376V8.687A34.2,34.2,0,0,0,60.368,8.5c-2.066,0-6.64.376-8.334,3.186,0-2.625,2.571-2.873,2.571-5.436a2.913,2.913,0,0,0-2.945-3,2.98,2.98,0,0,0-3.071,3c0,2.5,2.559,2.876,2.559,5.373-1.189-1.688-3.32-2.319-5.584-2.319a14.734,14.734,0,0,0-4.134.624V1.813H33.489v12.44a10.654,10.654,0,0,0-4.951-1.139A12.554,12.554,0,0,0,21.5,15.1a7.731,7.731,0,0,0-2.548-1.918,6.583,6.583,0,0,0,.663-.524,5.327,5.327,0,0,0,1.845-4.035c0-5.87-9.274-6.308-13.222-6.308a50.452,50.452,0,0,0-5.951.32l.2,26.234a49.6,49.6,0,0,0,12.331-1.449,20.643,20.643,0,0,0,3.043-1.095c1.359,3.358,4.914,5.48,9.306,5.48a10.79,10.79,0,0,0,9.572-5.142,6.346,6.346,0,0,0,1.4.146A15.2,15.2,0,0,0,42.937,26c4.574-1.533,8.478-5.137,9.041-9.74A9.251,9.251,0,0,0,56.736,20.3l-5.074-.063V26.3a34.781,34.781,0,0,0,4.072.188c2.757,0,9.15-.376,9.15-5.809C64.884,18.745,63.379,16.06,59.493,14.061ZM10.43,9.427a1.062,1.062,0,0,1,1.124-1.183c.754,0,1.317.313,1.317,1.187v1.514c0,.874-.563,1.187-1.317,1.187a1.067,1.067,0,0,1-1.126-1.187Zm2.506,10.819c0,.874-.563,1.185-1.317,1.185a1.082,1.082,0,0,1-1.189-1.185V17.927a1.084,1.084,0,0,1,1.189-1.187c.754,0,1.317.313,1.317,1.187Zm15.916,3.685c0,.874-.563,1.185-1.315,1.185a1.081,1.081,0,0,1-1.191-1.185V21a1.082,1.082,0,0,1,1.191-1.187c.751,0,1.315.311,1.315,1.187Zm15.1-5.434a1.049,1.049,0,0,1-1.019,1.16,2.474,2.474,0,0,1-.3.019,1.083,1.083,0,0,1-1.189-1.185V16a1.084,1.084,0,0,1,1.189-1.187,2.07,2.07,0,0,1,.3.021,1.056,1.056,0,0,1,1.019,1.16Z" fill="#c12a21"/>
      <path id="path6" d="M39.218,28.537a9.955,9.955,0,0,0,1.295-4.949,9.008,9.008,0,0,0-4.772-8.394v7.982c0,2.936,1.132,4.824,3.477,5.361ZM24.523,20.831a7.074,7.074,0,0,0-1.639-4.722A10.189,10.189,0,0,0,18.339,24.8a8.98,8.98,0,0,0,.639,3.375C22.2,26.691,24.523,24.379,24.523,20.831Z" transform="translate(-1.654 -1.542)" fill="#893529" opacity="0.5"/>
    </g>
  </g>
</svg>
