<svg id="Grupo_15902" data-name="Grupo 15902" xmlns="http://www.w3.org/2000/svg" xmlns:xlink="http://www.w3.org/1999/xlink" width="24" height="24" viewBox="0 0 24 24">
  <defs>
    <clipPath id="clip-path">
      <rect id="Retângulo_7380" data-name="Retângulo 7380" width="24" height="24" fill="#fff"/>
    </clipPath>
  </defs>
  <g id="Grupo_15900" data-name="Grupo 15900" clip-path="url(#clip-path)">
    <path id="Caminho_33126" data-name="Caminho 33126" d="M15.5,7.75A.75.75,0,0,1,14.75,7V6.5a2.75,2.75,0,0,0-5.5,0V7a.75.75,0,0,1-1.5,0V6.5a4.25,4.25,0,0,1,8.5,0V7a.75.75,0,0,1-.75.75" fill="#fff"/>
    <path id="Caminho_33127" data-name="Caminho 33127" d="M10,12.75A.75.75,0,0,1,9.25,12V11a.75.75,0,0,1,1.5,0v1a.75.75,0,0,1-.75.75" fill="#fff"/>
    <path id="Caminho_33128" data-name="Caminho 33128" d="M14,12.75a.75.75,0,0,1-.75-.75V11a.75.75,0,0,1,1.5,0v1a.75.75,0,0,1-.75.75" fill="#fff"/>
    <path id="Caminho_33129" data-name="Caminho 33129" d="M12,17.742a6.064,6.064,0,0,1-3.993-1.488.75.75,0,0,1,.986-1.131,4.59,4.59,0,0,0,6.014,0,.75.75,0,0,1,.986,1.131A6.068,6.068,0,0,1,12,17.742" fill="#fff"/>
    <path id="Caminho_33130" data-name="Caminho 33130" d="M15.5,21.75h-7c-.109,0-.218,0-.327-.01A5.258,5.258,0,0,1,3.26,16.172l.459-7.343A2.756,2.756,0,0,1,6.464,6.25H17.536A2.753,2.753,0,0,1,20.28,8.828l.46,7.344c.007.11.01.219.01.328a5.256,5.256,0,0,1-5.25,5.25m-9.036-14A1.252,1.252,0,0,0,5.216,8.922l-.459,7.344a3.757,3.757,0,0,0,3.51,3.978c.077.005.155.006.233.006h7a3.754,3.754,0,0,0,3.75-3.75c0-.078,0-.156-.008-.234l-.459-7.344A1.252,1.252,0,0,0,17.536,7.75Z" fill="#fff"/>
  </g>
</svg>
