<svg xmlns="http://www.w3.org/2000/svg" xmlns:xlink="http://www.w3.org/1999/xlink" width="70" height="53" viewBox="0 0 70 53">
  <defs>
    <clipPath id="clip-path">
      <rect id="Ret칙ngulo_4427" data-name="Ret칙ngulo 4427" width="70" height="53" rx="4" transform="translate(8 18)" fill="#782ffa"/>
    </clipPath>
  </defs>
  <g id="Grupo_de_m치scara_79" data-name="Grupo de m치scara 79" transform="translate(-8 -18)" clip-path="url(#clip-path)">
    <g id="Grupo_11118" data-name="Grupo 11118" transform="translate(-466.684 -400.468)">
      <path id="Caminho_23444" data-name="Caminho 23444" d="M481.58,459.075l4.2-.006v-2.622h-4.66c-.065,0-.131-.007-.2-.007a2.985,2.985,0,0,0-1.2,5.716l2.989,1.492c.7.351.59.99-.206.99h-4.268V463.32l-1.775,1.306-1.775,1.306,1.775,1.306,1.775,1.306v-1.319l5.075.061a2.984,2.984,0,0,0,2.984-2.984,2.631,2.631,0,0,0-.926-2.285L481.5,460c-.311-.162-.269-.926.082-.926Zm14.141-2.589v6.968a3.733,3.733,0,0,1-1.25,2.948,4.839,4.839,0,0,1-3.327,1.1,4.347,4.347,0,0,1-3.167-1.071,4.119,4.119,0,0,1-1.1-3.082v-6.865h3.227v7.205a1.2,1.2,0,0,0,1.194,1.194h0a1.2,1.2,0,0,0,1.194-1.194v-7.205Zm6.908,10.747a2.985,2.985,0,0,0,1.438-5.6,2.829,2.829,0,0,0-1.437-5.128v-.029h-5.991v10.758Zm-2.794-4.448h1.548a1.124,1.124,0,0,1,1.121,1.121h0a1.049,1.049,0,0,1-1.046,1.046h-1.623v-2.167Zm0-3.936h1.3a.941.941,0,0,1,.938.938h0a.878.878,0,0,1-.875.875h-1.358v-1.813Z" transform="translate(0 -16.875)" fill="#ffca01"/>
      <path id="Caminho_23445" data-name="Caminho 23445" d="M949.795,442.172v2.211a2.906,2.906,0,0,1-2.742,2.893v3.144h-3.472v-3.153a2.907,2.907,0,0,1-2.632-2.884v-4.8h3.173v4.29a1.02,1.02,0,0,0,1.017,1.017h.464a1.02,1.02,0,0,0,1.017-1.017V441.6h.012c0-.015,0-.029,0-.044a1.968,1.968,0,0,1,1.968-1.968h2.739v-1.318l1.775,1.306,1.775,1.306-1.775,1.306-1.775,1.306v-1.319Zm-15.316,8.206h-3.242v-6.833a3.9,3.9,0,0,1,1.229-3.074,5.027,5.027,0,0,1,3.459-1.1,4.425,4.425,0,0,1,3.178.993,4.086,4.086,0,0,1,1.028,3.066v6.943h-3.242v-3.142h-2.41v3.142Zm2.41-5.464v-1.8a1.209,1.209,0,0,0-1.205-1.205h0a1.209,1.209,0,0,0-1.205,1.205v1.8Zm-6.444-5.281v7.738a3.02,3.02,0,0,1-1.022,2.365,3.822,3.822,0,0,1-2.646.916c-.068,0-.136,0-.2,0a3.733,3.733,0,0,1-2.784-.8,3.326,3.326,0,0,1-2.635.806c-.168-.007-.345-.011-.53-.011a3.507,3.507,0,0,1-2.6-.916,3.594,3.594,0,0,1-.9-2.631v-7.472h3.2v7.338a.954.954,0,0,0,.951.951h0a.954.954,0,0,0,.951-.951v-7.338h3.052v7.338a.954.954,0,0,0,.951.951h0a.954.954,0,0,0,.951-.951v-7.338Zm18.1,9.178a.823.823,0,0,1,.4.1.738.738,0,0,1,.3.3.82.82,0,0,1,.108.4.811.811,0,0,1-.106.4.743.743,0,0,1-.3.3.807.807,0,0,1-.8,0,.747.747,0,0,1-.3-.3.8.8,0,0,1,0-.8.744.744,0,0,1,.3-.3.823.823,0,0,1,.4-.1Zm0,.133a.686.686,0,0,0-.33.087.621.621,0,0,0-.251.248.667.667,0,0,0,0,.669.63.63,0,0,0,.249.248.669.669,0,0,0,.667,0,.627.627,0,0,0,.248-.248.671.671,0,0,0,0-.669.617.617,0,0,0-.251-.248.686.686,0,0,0-.329-.087Zm-.353,1.114v-.863h.3a.723.723,0,0,1,.221.024.213.213,0,0,1,.109.084.221.221,0,0,1,.04.126.228.228,0,0,1-.068.165.268.268,0,0,1-.18.079.231.231,0,0,1,.073.046.973.973,0,0,1,.128.171l.105.169h-.169l-.077-.136a.692.692,0,0,0-.146-.2.178.178,0,0,0-.112-.029h-.082v.366Zm.14-.486h.169a.274.274,0,0,0,.166-.036.117.117,0,0,0,.044-.1.115.115,0,0,0-.022-.068.125.125,0,0,0-.059-.045.447.447,0,0,0-.14-.015h-.159v.259Z" transform="translate(-410.797)" fill="#009945" fill-rule="evenodd"/>
    </g>
  </g>
</svg>
