<svg id="warning" xmlns="http://www.w3.org/2000/svg" width="16" height="16" viewBox="0 0 16 16">
  <g id="Grupo_11271" data-name="Grupo 11271">
    <path id="Caminho_26428" data-name="Caminho 26428" d="M0,0H16V16H0Z" fill="none"/>
  </g>
  <g id="Grupo_11272" data-name="Grupo 11272" transform="translate(1.439 1.439)">
    <path id="Caminho_26429" data-name="Caminho 26429" d="M8.761,15.322a6.561,6.561,0,1,1,6.561-6.561A6.572,6.572,0,0,1,8.761,15.322Zm0-12.051a5.49,5.49,0,1,0,5.49,5.49A5.515,5.515,0,0,0,8.761,3.271Z" transform="translate(-2.2 -2.2)" fill="#cf6679"/>
  </g>
  <g id="Grupo_11273" data-name="Grupo 11273" transform="translate(7.477 4.431)">
    <path id="Caminho_26430" data-name="Caminho 26430" d="M11.723,10.917a.516.516,0,0,1-.523-.523V7.123a.516.516,0,0,1,.523-.523.481.481,0,0,1,.523.523v3.27A.516.516,0,0,1,11.723,10.917Z" transform="translate(-11.2 -6.6)" fill="#cf6679"/>
  </g>
  <g id="Grupo_11274" data-name="Grupo 11274" transform="translate(7.346 10.151)">
    <path id="Caminho_26431" data-name="Caminho 26431" d="M11.654,16.508A.618.618,0,0,1,11,15.854a.671.671,0,0,1,.654-.654.654.654,0,0,1,0,1.308Z" transform="translate(-11 -15.2)" fill="#cf6679"/>
  </g>
</svg>
